REM DIRINDEX 1\2,1\3,1\4,1\5
REM DIRNAME folder01,folder02,folder03,folder04,folder05
TITLE ""
FILE "1800_155.mp3" MP3
  TRACK 01 AUDIO
    TITLE "2:cjc044_4920"
    INDEX 01 00:00:00
  TRACK 02 AUDIO
    TITLE "0:"
    INDEX 01 00:01:15
  TRACK 03 AUDIO
    TITLE "3:cjc044_4921"
    INDEX 01 00:01:73
  TRACK 04 AUDIO
    TITLE "0:"
    INDEX 01 00:03:23
  TRACK 05 AUDIO
    TITLE "4:cjc044_4922"
    INDEX 01 00:04:05
  TRACK 06 AUDIO
    TITLE "0:"
    INDEX 01 00:05:26
  TRACK 07 AUDIO
    TITLE "2:cjc044_4923"
    INDEX 01 00:07:13
  TRACK 08 AUDIO
    TITLE "0:"
    INDEX 01 00:08:26
  TRACK 09 AUDIO
    TITLE "3:cjc044_4924"
    INDEX 01 00:09:08
  TRACK 10 AUDIO
    TITLE "0:"
    INDEX 01 00:10:74
  TRACK 11 AUDIO
    TITLE "4:cjc044_4925"
    INDEX 01 00:11:50
  TRACK 12 AUDIO
    TITLE "0:"
    INDEX 01 00:12:65
  TRACK 13 AUDIO
    TITLE "2:cjc044_4926"
    INDEX 01 00:14:51
  TRACK 14 AUDIO
    TITLE "0:"
    INDEX 01 00:15:72
  TRACK 15 AUDIO
    TITLE "3:cjc044_4927"
    INDEX 01 00:16:65
  TRACK 16 AUDIO
    TITLE "0:"
    INDEX 01 00:18:09
  TRACK 17 AUDIO
    TITLE "4:cjc044_4928"
    INDEX 01 00:19:07
  TRACK 18 AUDIO
    TITLE "0:"
    INDEX 01 00:20:32
  TRACK 19 AUDIO
    TITLE "2:cjc044_4929"
    INDEX 01 00:22:13
  TRACK 20 AUDIO
    TITLE "0:"
    INDEX 01 00:23:63
  TRACK 21 AUDIO
    TITLE "3:cjc044_4930"
    INDEX 01 00:24:43
  TRACK 22 AUDIO
    TITLE "0:"
    INDEX 01 00:25:68
  TRACK 23 AUDIO
    TITLE "4:cjc044_4931"
    INDEX 01 00:26:48
  TRACK 24 AUDIO
    TITLE "0:"
    INDEX 01 00:28:23
  TRACK 25 AUDIO
    TITLE "2:cjc044_4932"
    INDEX 01 00:30:10
  TRACK 26 AUDIO
    TITLE "0:"
    INDEX 01 00:31:35
  TRACK 27 AUDIO
    TITLE "3:cjc044_4933"
    INDEX 01 00:32:25
  TRACK 28 AUDIO
    TITLE "0:"
    INDEX 01 00:33:36
  TRACK 29 AUDIO
    TITLE "4:cjc044_4934"
    INDEX 01 00:34:32
  TRACK 30 AUDIO
    TITLE "0:"
    INDEX 01 00:35:59
  TRACK 31 AUDIO
    TITLE "2:cjc044_4935"
    INDEX 01 00:37:46
  TRACK 32 AUDIO
    TITLE "0:"
    INDEX 01 00:38:69
  TRACK 33 AUDIO
    TITLE "3:cjc044_4936"
    INDEX 01 00:39:58
  TRACK 34 AUDIO
    TITLE "0:"
    INDEX 01 00:40:56
  TRACK 35 AUDIO
    TITLE "4:cjc044_4937"
    INDEX 01 00:41:45
  TRACK 36 AUDIO
    TITLE "0:"
    INDEX 01 00:42:68
  TRACK 37 AUDIO
    TITLE "2:cjc044_4938"
    INDEX 01 00:44:54
  TRACK 38 AUDIO
    TITLE "0:"
    INDEX 01 00:45:69
  TRACK 39 AUDIO
    TITLE "3:cjc044_4939"
    INDEX 01 00:46:56
  TRACK 40 AUDIO
    TITLE "0:"
    INDEX 01 00:47:68
  TRACK 41 AUDIO
    TITLE "4:cjc044_4940"
    INDEX 01 00:48:63
  TRACK 42 AUDIO
    TITLE "0:"
    INDEX 01 00:50:03
  TRACK 43 AUDIO
    TITLE "2:cjc044_4941"
    INDEX 01 00:51:60
  TRACK 44 AUDIO
    TITLE "0:"
    INDEX 01 00:53:21
  TRACK 45 AUDIO
    TITLE "3:cjc044_4942"
    INDEX 01 00:53:74
  TRACK 46 AUDIO
    TITLE "0:"
    INDEX 01 00:55:20
  TRACK 47 AUDIO
    TITLE "4:cjc044_4943"
    INDEX 01 00:56:04
  TRACK 48 AUDIO
    TITLE "0:"
    INDEX 01 00:57:39
  TRACK 49 AUDIO
    TITLE "2:cjc044_4944"
    INDEX 01 00:59:18
  TRACK 50 AUDIO
    TITLE "0:"
    INDEX 01 01:00:41
  TRACK 51 AUDIO
    TITLE "3:cjc044_4945"
    INDEX 01 01:01:17
  TRACK 52 AUDIO
    TITLE "0:"
    INDEX 01 01:02:26
  TRACK 53 AUDIO
    TITLE "4:cjc044_4946"
    INDEX 01 01:03:04
  TRACK 54 AUDIO
    TITLE "0:"
    INDEX 01 01:04:29
  TRACK 55 AUDIO
    TITLE "2:cjc044_4947"
    INDEX 01 01:06:12
  TRACK 56 AUDIO
    TITLE "0:"
    INDEX 01 01:07:41
  TRACK 57 AUDIO
    TITLE "3:cjc044_4948"
    INDEX 01 01:08:17
  TRACK 58 AUDIO
    TITLE "0:"
    INDEX 01 01:09:20
  TRACK 59 AUDIO
    TITLE "4:cjc044_4949"
    INDEX 01 01:10:04
  TRACK 60 AUDIO
    TITLE "0:"
    INDEX 01 01:11:33
  TRACK 61 AUDIO
    TITLE "2:cjc044_4950"
    INDEX 01 01:13:08
  TRACK 62 AUDIO
    TITLE "0:"
    INDEX 01 01:14:21
  TRACK 63 AUDIO
    TITLE "3:cjc044_4951"
    INDEX 01 01:14:74
  TRACK 64 AUDIO
    TITLE "0:"
    INDEX 01 01:15:68
  TRACK 65 AUDIO
    TITLE "4:cjc044_4952"
    INDEX 01 01:16:50
  TRACK 66 AUDIO
    TITLE "0:"
    INDEX 01 01:17:63
  TRACK 67 AUDIO
    TITLE "2:cjc044_4953"
    INDEX 01 01:19:42
  TRACK 68 AUDIO
    TITLE "0:"
    INDEX 01 01:20:65
  TRACK 69 AUDIO
    TITLE "3:cjc044_4954"
    INDEX 01 01:21:45
  TRACK 70 AUDIO
    TITLE "0:"
    INDEX 01 01:22:54
  TRACK 71 AUDIO
    TITLE "4:cjc044_4955"
    INDEX 01 01:23:32
  TRACK 72 AUDIO
    TITLE "0:"
    INDEX 01 01:24:53
  TRACK 73 AUDIO
    TITLE "2:cjc044_4956"
    INDEX 01 01:26:40
  TRACK 74 AUDIO
    TITLE "0:"
    INDEX 01 01:27:71
  TRACK 75 AUDIO
    TITLE "3:cjc044_4957"
    INDEX 01 01:28:55
  TRACK 76 AUDIO
    TITLE "0:"
    INDEX 01 01:29:68
  TRACK 77 AUDIO
    TITLE "4:cjc044_4958"
    INDEX 01 01:30:52
  TRACK 78 AUDIO
    TITLE "0:"
    INDEX 01 01:32:08
  TRACK 79 AUDIO
    TITLE "2:cjc044_4959"
    INDEX 01 01:33:66
  TRACK 80 AUDIO
    TITLE "0:"
    INDEX 01 01:35:14
  TRACK 81 AUDIO
    TITLE "3:cjc044_4960"
    INDEX 01 01:35:69
  TRACK 82 AUDIO
    TITLE "0:"
    INDEX 01 01:37:17
  TRACK 83 AUDIO
    TITLE "4:cjc044_4961"
    INDEX 01 01:37:71
  TRACK 84 AUDIO
    TITLE "0:"
    INDEX 01 01:39:21
  TRACK 85 AUDIO
    TITLE "2:cjc044_4962"
    INDEX 01 01:41:03
  TRACK 86 AUDIO
    TITLE "0:"
    INDEX 01 01:42:02
  TRACK 87 AUDIO
    TITLE "3:cjc044_4963"
    INDEX 01 01:42:73
  TRACK 88 AUDIO
    TITLE "0:"
    INDEX 01 01:44:15
  TRACK 89 AUDIO
    TITLE "4:cjc044_4964"
    INDEX 01 01:44:70
  TRACK 90 AUDIO
    TITLE "0:"
    INDEX 01 01:45:71
  TRACK 91 AUDIO
    TITLE "2:cjc044_4965"
    INDEX 01 01:47:66
  TRACK 92 AUDIO
    TITLE "0:"
    INDEX 01 01:49:12
  TRACK 93 AUDIO
    TITLE "3:cjc044_4966"
    INDEX 01 01:49:67
  TRACK 94 AUDIO
    TITLE "0:"
    INDEX 01 01:50:56
  TRACK 95 AUDIO
    TITLE "4:cjc044_4967"
    INDEX 01 01:51:36
  TRACK 96 AUDIO
    TITLE "0:"
    INDEX 01 01:52:57
  TRACK 97 AUDIO
    TITLE "2:cjc044_4968"
    INDEX 01 01:54:37
  TRACK 98 AUDIO
    TITLE "0:"
    INDEX 01 01:55:65
  TRACK 99 AUDIO
    TITLE "3:cjc044_4969"
    INDEX 01 01:56:51
  TRACK 100 AUDIO
    TITLE "0:"
    INDEX 01 01:57:68
  TRACK 101 AUDIO
    TITLE "4:cjc044_4970"
    INDEX 01 01:58:58
  TRACK 102 AUDIO
    TITLE "0:"
    INDEX 01 02:00:18
